<svg width="37" height="37" viewBox="0 0 37 37" fill="none" xmlns="http://www.w3.org/2000/svg">
<circle cx="18.75" cy="18.25" r="18.0833" fill="white"/>
<path fill-rule="evenodd" clip-rule="evenodd" d="M26.2983 12.6584C26.7545 12.2034 26.7545 11.4637 26.2983 11.0087C25.8433 10.5525 25.1048 10.5525 24.6486 11.0087L18.904 16.7534L13.1581 11.0087C12.7031 10.5525 11.9635 10.5525 11.5085 11.0087C11.0523 11.4637 11.0523 12.2034 11.5085 12.6584L17.2531 18.4042L11.5085 24.1489C11.0523 24.605 11.0523 25.3435 11.5085 25.7985C11.9635 26.2547 12.7031 26.2547 13.1581 25.7985L18.904 20.0539L24.6486 25.7985C25.1048 26.2547 25.8433 26.2547 26.2983 25.7985C26.7545 25.3435 26.7545 24.605 26.2983 24.1489L20.5536 18.4042L26.2983 12.6584Z" fill="#6A6E72"/>
</svg>
